<?xml version="1.0" encoding="utf-8"?>
<!-- Generator: Adobe Illustrator 16.0.0, SVG Export Plug-In . SVG Version: 6.00 Build 0)  -->
<!DOCTYPE svg PUBLIC "-//W3C//DTD SVG 1.1//EN" "http://www.w3.org/Graphics/SVG/1.1/DTD/svg11.dtd">
<svg version="1.1" id="Isolation_Mode" xmlns="http://www.w3.org/2000/svg" xmlns:xlink="http://www.w3.org/1999/xlink" x="0px"
	 y="0px" width="322px" height="311px" viewBox="0 0 322 311" enable-background="new 0 0 322 311" xml:space="preserve">
<circle fill="#F3F2F2" cx="164.693" cy="160.071" r="121.938"/>
<g opacity="0.8">
	<g>
		<path fill="#231F20" d="M129.725,196.674h-21.912v14.081h21.912V196.674z M226.146,100.626H103.433
			c-2.422,0-6.478,3.594-6.478,6.728v107.921c0,3.136,4.056,6.726,6.478,6.726h123.759c4.611,0,5.429-6.726,5.429-6.726V107.354
			C232.622,104.22,228.567,100.626,226.146,100.626z M134.111,215.274h-30.678v-22.722h30.678V215.274z M134.111,186.875h-30.678
			v-22.718h30.678V186.875z M134.111,158.473h-30.678v-22.718h30.678V158.473z M134.111,130.071h-30.678v-22.717h30.678V130.071z
			 M164.652,215.274h-26.156v-22.722h26.296L164.652,215.274z M164.652,186.875h-26.156v-22.718h26.296L164.652,186.875z
			 M138.496,158.473v-22.718h26.156l0.14,22.718H138.496z M164.792,130.071h-26.296v-22.717h26.296V130.071z M195.465,215.274
			h-26.159l-0.272-22.722h26.431V215.274z M195.465,186.875h-26.159l-0.272-22.718h26.431V186.875z M195.465,158.473h-26.292
			l-0.14-22.718h26.431V158.473z M195.465,130.071h-26.292l-0.14-22.717h26.431V130.071z M226.146,215.274h-26.298l-0.135-22.722
			h26.433V215.274z M226.146,186.875h-26.298l-0.135-22.718h26.433V186.875z M226.146,158.473h-26.433v-22.718h26.433V158.473z
			 M226.146,130.071h-26.298l-0.135-22.717h26.433V130.071z M129.725,140.018h-21.912v14.073h21.912V140.018z M129.725,168.343
			h-21.912v14.079h21.912V168.343z M191.988,111.445h-19.809v14.077h19.809V111.445z M129.725,111.598h-21.912v14.079h21.912
			V111.598z M161.733,111.525h-19.812v14.079h19.812V111.525z M222.595,111.679h-19.813v14.078h19.813V111.679z"/>
	</g>
</g>
</svg>
