<?xml version="1.0" encoding="utf-8"?>
<!-- Generator: Adobe Illustrator 16.0.0, SVG Export Plug-In . SVG Version: 6.00 Build 0)  -->
<!DOCTYPE svg PUBLIC "-//W3C//DTD SVG 1.1//EN" "http://www.w3.org/Graphics/SVG/1.1/DTD/svg11.dtd">
<svg version="1.1" id="Header_x5F_footer" xmlns="http://www.w3.org/2000/svg" xmlns:xlink="http://www.w3.org/1999/xlink" x="0px"
	 y="0px" width="180px" height="55px" viewBox="0 0 180 55" enable-background="new 0 0 180 55" xml:space="preserve">
<g>
	<path fill="#4C4C4C" d="M59.354,16.244c4.689-0.511,10.836,3.228,11.57,9.946c0.66,6.024-4.549,10.929-9.59,11.565
		c-3.923,0.493-8.195-0.915-10.653-4.904c0,0,4.182,4.771,10.186,4.12c4.122-0.45,6.869-3.462,6.441-7.391
		c-0.569-5.189-5.991-5.941-8.534-6.567c-2.102-0.526-3.407-2.277-2.805-4.39C56.452,16.946,57.905,16.405,59.354,16.244"/>
	<path fill="#A1A1A1" d="M68.845,17.874c0,0-0.015-0.028-0.055-0.096c-0.399-0.685-3.101-4.881-9.083-4.881
		c-6.509,0-11.062,5.574-11.062,10.769c0,5.202,4.538,10.776,11.062,10.776c0,0,3.563,0.197,4.227-2.58
		c0.661-2.781-0.908-4.031-2.214-4.348c-1.037-0.248-8.784-0.906-9.314-6.505c-0.534-5.593,4.155-7.295,7.302-7.295
		C59.707,13.715,64.286,13.392,68.845,17.874"/>
	<path d="M23.223,34.446c0,0.315-0.183,0.468-0.534,0.468h-2.314c-0.356,0-0.537-0.152-0.537-0.468V21.068
		c0-0.71-0.133-1.992-0.752-2.971c-0.356-0.547-0.493-0.855-0.493-0.976c0.05-0.234,0.226-0.348,0.319-0.389l1.639-0.896
		c0.181-0.121,0.356-0.197,0.445-0.197c0.802,0,1.559,2.421,1.734,3.276c1.156-1.093,2.758-3.276,5.337-3.276
		c1.026,0,2.185,0.314,2.185,0.665c0,0.076-0.088,0.19-0.14,0.306l-0.974,2c-0.045,0.075-0.089,0.261-0.27,0.261
		c-0.219,0-0.621-0.342-1.467-0.342c-1.558,0-3.109,2.025-4.179,3.043V34.446z"/>
	<path d="M45.684,33.118c0.042,0.118,0.131,0.198,0.131,0.315c0,0.433-3.735,2.025-7.021,2.025c-5.92-0.035-9.388-3.975-9.388-9.911
		c0-5.73,3.292-9.907,8.803-9.907c7.433,0,8.1,6.319,8.1,9.679c0,0.543,0,0.854-0.493,0.854H33.054c0,2.381,1.062,6.678,6.133,6.678
		c2.893,0,5.207-1.602,5.477-1.602c0.13,0,0.176,0.112,0.263,0.234L45.684,33.118z M42.659,23.755c0-2.03-0.757-5.693-4.625-5.693
		c-4.092,0-4.98,3.746-4.98,5.693H42.659z"/>
	<path d="M81.843,35.459c-6.003,0-8.582-4.253-8.582-9.827c0-5.396,2.579-9.991,9.024-9.991c6.099,0,8.676,4.289,8.676,9.794
		C90.961,30.892,88.338,35.459,81.843,35.459 M87.318,25.396c0-3.822-1.202-7.334-5.209-7.334c-4.003,0-5.204,3.357-5.204,7.219
		c0,4.448,1.158,7.763,5.25,7.763C86.116,33.043,87.318,29.883,87.318,25.396"/>
	<path d="M109.953,34.446c0,0.315-0.174,0.468-0.53,0.468h-2.316c-0.356,0-0.532-0.152-0.532-0.468V21.419
		c0-1.678-0.486-3.167-2.89-3.167c-2.891,0-4.758,1.526-5.87,2.38v13.814c0,0.315-0.176,0.468-0.534,0.468h-2.314
		c-0.356,0-0.532-0.152-0.532-0.468V20.988c0-1.293,0-1.721-0.177-2.302c-0.354-1.175-0.713-1.444-0.713-1.643
		c0-0.076,0.044-0.156,0.225-0.27l1.999-0.974c0.094-0.043,0.224-0.16,0.354-0.16c0.802,0,1.334,2.336,1.377,2.651
		c1.472-1.009,3.781-2.651,7.167-2.651c4.938,0,5.287,3.046,5.287,5.848V34.446z"/>
	<path d="M127.258,28.753c0,2.453,0.135,2.803,0.53,3.9c0.185,0.465,0.807,1.213,0.807,1.443c0,0.152-0.225,0.236-0.404,0.312
		l-1.734,0.933c-0.176,0.082-0.263,0.117-0.356,0.117c-0.665,0-1.462-2.064-1.688-2.607c-0.534,0.428-2.712,2.607-6.404,2.607
		c-3.512,0-5.782-2.025-5.782-5.491c0-6.602,8.898-6.724,11.652-6.793v-1.413c0-2.26-0.8-3.51-3.96-3.51
		c-2.977,0-5.02,1.25-5.422,1.25c-0.135,0-0.268-0.076-0.311-0.189l-0.576-1.366c-0.093-0.198-0.139-0.313-0.139-0.511
		c0-0.661,4.092-1.795,6.94-1.795c5.113,0,6.848,2.184,6.848,5.465V28.753z M123.877,25.589c-1.952,0.043-8.314,0.043-8.314,4.14
		c0,1.559,0.974,3.314,3.242,3.314c2.318,0,4.366-1.878,5.072-2.412V25.589z"/>
	<path d="M143.674,33.471c0.043,0.152,0.087,0.273,0.087,0.396c0,0.5-3.336,1.593-5.739,1.593c-1.91,0-3.512-0.621-4.179-1.362
		c-1.291-1.208-1.291-2.962-1.291-4.411V18.611h-3.336c-0.311,0-0.311-0.276-0.311-0.474v-1.48c0-0.275,0-0.474,0.311-0.474h3.336
		v-5.351c0-0.229,0.176-0.382,0.489-0.458l2.359-0.587c0.131,0,0.22-0.039,0.311-0.039c0.227,0,0.227,0.191,0.227,0.428v6.007h6.578
		c0.267,0,0.486,0.039,0.486,0.276c0,0.08-0.043,0.151-0.043,0.273l-0.576,1.519c-0.087,0.198-0.307,0.359-0.576,0.359h-5.869
		v11.074c0,1.564,0,3.166,2.666,3.166c2.091,0,3.868-1.052,4.269-1.052c0.18,0,0.312,0.112,0.312,0.234L143.674,33.471z"/>
	<path d="M159.329,33.118c0.045,0.118,0.135,0.198,0.135,0.315c0,0.433-3.736,2.025-7.03,2.025
		c-5.915-0.035-9.382-3.975-9.382-9.911c0-5.73,3.293-9.907,8.806-9.907c7.424,0,8.093,6.319,8.093,9.679
		c0,0.543,0,0.854-0.486,0.854h-12.77c0,2.381,1.071,6.678,6.139,6.678c2.895,0,5.209-1.602,5.47-1.602
		c0.14,0,0.177,0.112,0.27,0.234L159.329,33.118z M156.308,23.755c0-2.03-0.765-5.693-4.631-5.693c-4.087,0-4.982,3.746-4.982,5.693
		H156.308z"/>
</g>
</svg>
